<svg width="50" height="50" viewBox="0 0 50 50" fill="none" xmlns="http://www.w3.org/2000/svg">
<path d="M0 16C0 10.3995 0 7.59921 1.08993 5.46009C2.04867 3.57847 3.57847 2.04867 5.46009 1.08993C7.59921 0 10.3995 0 16 0H34C39.6005 0 42.4008 0 44.5399 1.08993C46.4215 2.04867 47.9513 3.57847 48.9101 5.46009C50 7.59921 50 10.3995 50 16V34C50 39.6005 50 42.4008 48.9101 44.5399C47.9513 46.4215 46.4215 47.9513 44.5399 48.9101C42.4008 50 39.6005 50 34 50H16C10.3995 50 7.59921 50 5.46009 48.9101C3.57847 47.9513 2.04867 46.4215 1.08993 44.5399C0 42.4008 0 39.6005 0 34V16Z" fill="#285C3E"/>
<ellipse cx="4.25531" cy="4.57139" rx="4.25531" ry="4.57139" transform="matrix(-1 0 0 1 29.8984 12.7451)" stroke="white" stroke-width="1.5"/>
<path d="M18.1963 28.4539C18.1963 27.5967 18.7246 26.8281 19.525 26.5211C23.4637 25.0099 27.8224 25.0099 31.7612 26.5211C32.5615 26.8281 33.0899 27.5967 33.0899 28.4539V30.4147C33.0899 31.6402 31.9978 32.5775 30.7865 32.3916L29.7388 32.2308C27.0242 31.8142 24.262 31.8142 21.5474 32.2308L20.4997 32.3916C19.2884 32.5775 18.1963 31.6402 18.1963 30.4147V28.4539Z" stroke="white" stroke-width="1.5"/>
<path d="M32.0262 22.0142C33.8727 22.0142 35.3696 20.4061 35.3696 18.4224C35.3696 16.4387 33.8727 14.8306 32.0262 14.8306" stroke="white" stroke-width="1.5" stroke-linecap="round"/>
<path d="M35.6878 30.209L36.0154 30.2592C36.9979 30.41 37.877 29.591 37.877 28.5247V27.3435C37.877 26.5709 37.4249 25.8817 36.7477 25.6219C36.0721 25.3627 35.3827 25.1609 34.6855 25.0164" stroke="white" stroke-width="1.5" stroke-linecap="round"/>
<path d="M18.7282 22.0142C16.8817 22.0142 15.3848 20.4061 15.3848 18.4224C15.3848 16.4387 16.8817 14.8306 18.7282 14.8306" stroke="white" stroke-width="1.5" stroke-linecap="round"/>
<path d="M15.0661 30.209L14.7385 30.2592C13.756 30.41 12.8769 29.591 12.8769 28.5247V27.3435C12.8769 26.5709 13.329 25.8817 14.0062 25.6219C14.6818 25.3627 15.3712 25.1609 16.0684 25.0164" stroke="white" stroke-width="1.5" stroke-linecap="round"/>
</svg>
