<svg width="50" height="50" viewBox="0 0 50 50" fill="none" xmlns="http://www.w3.org/2000/svg">
<path d="M0 16C0 10.3995 0 7.59921 1.08993 5.46009C2.04867 3.57847 3.57847 2.04867 5.46009 1.08993C7.59921 0 10.3995 0 16 0H34C39.6005 0 42.4008 0 44.5399 1.08993C46.4215 2.04867 47.9513 3.57847 48.9101 5.46009C50 7.59921 50 10.3995 50 16V34C50 39.6005 50 42.4008 48.9101 44.5399C47.9513 46.4215 46.4215 47.9513 44.5399 48.9101C42.4008 50 39.6005 50 34 50H16C10.3995 50 7.59921 50 5.46009 48.9101C3.57847 47.9513 2.04867 46.4215 1.08993 44.5399C0 42.4008 0 39.6005 0 34V16Z" fill="#285C3E"/>
<ellipse cx="5.51874" cy="5.43081" rx="5.51874" ry="5.43081" transform="matrix(-1 0 0 1 30.3423 11.4706)" stroke="white" stroke-width="1.5"/>
<path d="M15 30.322C15 29.1491 15.733 28.1013 16.8348 27.6992C21.9343 25.8383 27.5272 25.8383 32.6267 27.6992C33.7285 28.1013 34.4615 29.1491 34.4615 30.322V33.1575C34.4615 34.377 33.3794 35.3127 32.1726 35.1365L28.6305 34.6195C26.0444 34.242 23.4171 34.242 20.831 34.6195L17.2889 35.1365C16.0821 35.3127 15 34.377 15 33.1575V30.322Z" stroke="white" stroke-width="1.5"/>
<path d="M34.4813 22.332H40" stroke="white" stroke-width="1.5" stroke-linecap="round" stroke-linejoin="round"/>
<path d="M37.2407 19.6168L37.2407 25.0476" stroke="white" stroke-width="1.5" stroke-linecap="round" stroke-linejoin="round"/>
</svg>
